<svg xmlns="http://www.w3.org/2000/svg" version="1.1" viewBox="0 0 654.9 200" width="654.9" height="200">
  <g>
    <g id="Warstwa_1">
      <g>
        <g>
          <path d="M131.5,138.7c-8.5,0-16-1.6-22.4-4.7-6.4-3.2-11.4-7.9-15-14.1-3.5-6.3-5.3-13.9-5.3-23s1-12.3,2.9-17.4c1.9-5,4.6-9.3,8.1-12.7,3.4-3.4,7.5-6,12.1-7.8,4.6-1.7,9.5-2.6,14.6-2.6l-55.6-32.1c-5.4-3.1-12.2.8-12.2,7v138.5c0,6.3,6.8,10.2,12.2,7l66.4-38.4c-1.9.2-3.8.3-5.9.3Z"/>
          <path d="M140.8,74.8c-3.3-3.5-8-5.2-14.1-5.2s-11.4,2.2-15.5,6.6c-3.8,4.1-5.9,10-6.2,17.4l41.3-5.8c-.3-5.2-2.2-9.6-5.5-13Z"/>
          <path d="M190.8,93.4l-31.9-18.4c2.3,4.7,3.5,9.9,3.5,15.7s-.7,4.8-2,6.1c-1.3,1.3-3.2,2.1-5.7,2.4l-48.7,6.9c1.3,5.6,3.8,10,7.6,13.1,4.8,3.9,11,5.9,18.8,5.9s8.9-.7,12.8-2.2c3.9-1.4,7-3,9.3-4.7,1.3.8,2.4,1.8,3.2,3.2.8,1.3,1.2,2.8,1.2,4.3s0,0,0,.1l31.8-18.3c5.4-3.1,5.4-10.9,0-14.1Z"/>
        </g>
        <path d="M229.6,117.6c0,6.5-2.4,11.6-7.2,15.3-4.8,3.7-11.8,5.5-20.9,5.5s-13.8-1.2-18.6-3.5c-4.9-2.3-7.3-5.1-7.3-8.4s.4-2.8,1.1-4c.7-1.2,1.7-2.2,3-3,2.7,1.7,5.8,3.3,9.4,4.8,3.5,1.5,7.5,2.2,12,2.2,9.1,0,13.7-2.9,13.7-8.7s-.8-4.5-2.3-6c-1.6-1.5-3.9-2.6-7-3.4l-10.2-2.6c-6.5-1.5-11.3-3.8-14.4-7-3.1-3.2-4.7-7.3-4.7-12.4s2.3-10.4,6.9-14.3c4.6-3.9,11.3-5.8,20.1-5.8s8.6.5,12.2,1.4c3.5.9,6.3,2.2,8.3,3.9,2,1.7,3,3.5,3,5.5s-.3,2.8-1,3.9-1.6,2-2.6,2.6c-1.2-.7-2.7-1.5-4.7-2.3-1.9-.9-4.1-1.6-6.6-2.2-2.5-.6-5-.9-7.6-.9-4.1,0-7.3.7-9.7,2.1-2.4,1.4-3.6,3.4-3.6,6s.7,3.5,2,4.9c1.4,1.4,3.6,2.4,6.8,3.1l8.6,2.2c7.3,1.7,12.6,4.2,16.1,7.6,3.4,3.4,5.2,7.9,5.2,13.5Z"/>
        <path d="M284.4,126.3c-.5-1-1.1-1.9-1.8-2.5-1.3.7-2.9,1.3-4.8,1.7-1.9.5-3.7.7-5.2.7-3.7,0-6.5-.7-8.6-2.2-2-1.5-3.1-3.9-3.1-7.4v-34.9h18.9c1.6,0,2.9-.5,3.8-1.5.9-1,1.4-2.5,1.4-4.6s-.2-2.3-.5-3.3c-.3-1.1-.7-1.9-1.1-2.5h-22.5v-14.5c0-2.4-.7-4.2-2-5.2-1.3-1.1-3.3-1.6-6-1.6s-2.8.1-4.1.4c-1.3.3-2.2.5-2.8.7v67.9c0,7.5,2.2,12.8,6.5,16,4.3,3.2,10.1,4.8,17.2,4.8s9-.8,11.6-2.4c2.6-1.6,3.8-3.7,3.8-6.2s-.3-2.4-.8-3.4Z"/>
        <path d="M326.6,66.3c9,0,16.2,2,21.5,5.9,5.3,3.9,7.9,10.1,7.9,18.5v33.9c0,2.2-.5,4-1.5,5.2-1,1.3-2.3,2.4-4.1,3.3-2.5,1.5-5.8,2.7-9.8,3.7-4,1-8.6,1.5-13.6,1.5-9.4,0-16.7-1.8-22-5.5-5.3-3.6-7.9-9-7.9-16.1s2.1-11.3,6.3-14.8c4.2-3.4,10.1-5.5,17.7-6.2l20.4-2v-3.3c0-4.4-1.4-7.5-4.2-9.5s-6.6-2.9-11.5-2.9-7.6.5-11.3,1.6c-3.6,1.1-6.9,2.3-9.7,3.6-.9-.8-1.6-1.7-2.3-2.8-.7-1.1-1-2.3-1-3.6,0-3,1.7-5.3,4.9-6.8,2.7-1.3,5.8-2.2,9.4-2.9,3.5-.7,7.2-1,10.8-1ZM327,126.8c3.5,0,6.5-.4,8.9-1.1s4.3-1.4,5.5-2.1v-18.8l-16.1,1.6c-4.5.4-7.8,1.4-10.1,3s-3.4,4-3.4,7.1,1.3,5.7,3.8,7.6,6.3,2.8,11.5,2.8Z"/>
        <path d="M389.7,42.3c-1.3-1-3.4-1.5-6.2-1.5s-2.7.1-3.9.4c-1.3.3-2.2.5-2.8.7v88.4c0,2.4.7,4.2,2,5.2,1.3,1.1,3.3,1.6,6,1.6s2.8-.1,4.1-.4c1.3-.3,2.2-.5,2.8-.7V47.7c0-2.5-.7-4.3-2-5.3Z"/>
        <path d="M438,66.3c9,0,16.2,2,21.5,5.9,5.3,3.9,7.9,10.1,7.9,18.5v33.9c0,2.2-.5,4-1.5,5.2-1,1.3-2.3,2.4-4.1,3.3-2.5,1.5-5.8,2.7-9.8,3.7-4,1-8.6,1.5-13.6,1.5-9.4,0-16.7-1.8-22-5.5-5.3-3.6-7.9-9-7.9-16.1s2.1-11.3,6.3-14.8c4.2-3.4,10.1-5.5,17.7-6.2l20.4-2v-3.3c0-4.4-1.4-7.5-4.2-9.5-2.8-1.9-6.6-2.9-11.5-2.9s-7.6.5-11.3,1.6c-3.6,1.1-6.9,2.3-9.7,3.6-.9-.8-1.6-1.7-2.3-2.8-.7-1.1-1-2.3-1-3.6,0-3,1.7-5.3,4.9-6.8,2.7-1.3,5.8-2.2,9.4-2.9,3.5-.7,7.2-1,10.8-1ZM438.5,126.8c3.5,0,6.5-.4,8.9-1.1s4.3-1.4,5.5-2.1v-18.8l-16.1,1.6c-4.5.4-7.8,1.4-10.1,3s-3.4,4-3.4,7.1,1.3,5.7,3.8,7.6c2.5,1.8,6.3,2.8,11.5,2.8Z"/>
        <path d="M518.3,66.4c-5.2,0-10.1.6-14.5,1.7-4.4,1.2-8,2.6-10.7,4.4-2,1.4-3.6,2.8-4.6,4.3-1,1.5-1.5,3.4-1.5,5.7v47.9c0,2.4.7,4.2,2,5.2,1.4,1.1,3.4,1.6,6.1,1.6s2.8-.1,4-.4,2.2-.5,2.8-.7v-53.2c2.1-1.3,4.8-2.3,8.1-3.1,3.2-.8,6.9-1.2,10.8-1.2s3.1,0,4.6.3c1.5.2,2.7.4,3.7.6.5-.8.9-1.7,1.2-2.6.3-1,.5-2,.5-3.2,0-4.8-4.2-7.1-12.7-7.1Z"/>
        <path d="M567.8,66.3c9,0,16.2,2,21.5,5.9,5.3,3.9,7.9,10.1,7.9,18.5v33.9c0,2.2-.5,4-1.5,5.2-1,1.3-2.3,2.4-4.1,3.3-2.5,1.5-5.8,2.7-9.8,3.7-4,1-8.6,1.5-13.6,1.5-9.4,0-16.7-1.8-22-5.5-5.3-3.6-7.9-9-7.9-16.1s2.1-11.3,6.3-14.8c4.2-3.4,10.1-5.5,17.7-6.2l20.4-2v-3.3c0-4.4-1.4-7.5-4.2-9.5s-6.6-2.9-11.5-2.9-7.6.5-11.3,1.6c-3.6,1.1-6.9,2.3-9.7,3.6-.9-.8-1.6-1.7-2.3-2.8-.7-1.1-1-2.3-1-3.6,0-3,1.7-5.3,4.9-6.8,2.7-1.3,5.8-2.2,9.4-2.9,3.5-.7,7.2-1,10.8-1ZM568.2,126.8c3.5,0,6.5-.4,8.9-1.1,2.5-.7,4.3-1.4,5.5-2.1v-18.8l-16.1,1.6c-4.5.4-7.8,1.4-10.1,3-2.3,1.6-3.4,4-3.4,7.1s1.3,5.7,3.8,7.6c2.5,1.8,6.3,2.8,11.5,2.8Z"/>
      </g>
    </g>
  </g>
</svg>
