<svg xmlns="http://www.w3.org/2000/svg" viewBox="45 14 160 172" width="32" height="32">
  <g>
    <path fill="black" d="M131.5,138.7c-8.5,0-16-1.6-22.4-4.7-6.4-3.2-11.4-7.9-15-14.1-3.5-6.3-5.3-13.9-5.3-23s1-12.3,2.9-17.4c1.9-5,4.6-9.3,8.1-12.7,3.4-3.4,7.5-6,12.1-7.8,4.6-1.7,9.5-2.6,14.6-2.6l-55.6-32.1c-5.4-3.1-12.2.8-12.2,7v138.5c0,6.3,6.8,10.2,12.2,7l66.4-38.4c-1.9.2-3.8.3-5.9.3Z"/>
    <path fill="black" d="M140.8,74.8c-3.3-3.5-8-5.2-14.1-5.2s-11.4,2.2-15.5,6.6c-3.8,4.1-5.9,10-6.2,17.4l41.3-5.8c-.3-5.2-2.2-9.6-5.5-13Z"/>
    <path fill="black" d="M190.8,93.4l-31.9-18.4c2.3,4.7,3.5,9.9,3.5,15.7s-.7,4.8-2,6.1c-1.3,1.3-3.2,2.1-5.7,2.4l-48.7,6.9c1.3,5.6,3.8,10,7.6,13.1,4.8,3.9,11,5.9,18.8,5.9s8.9-.7,12.8-2.2c3.9-1.4,7-3,9.3-4.7,1.3.8,2.4,1.8,3.2,3.2.8,1.3,1.2,2.8,1.2,4.3s0,0,0,.1l31.8-18.3c5.4-3.1,5.4-10.9,0-14.1Z"/>
  </g>
</svg>
